<?xml version="1.0" standalone="no"?>
<!DOCTYPE svg PUBLIC "-//W3C//DTD SVG 20010904//EN"
 "http://www.w3.org/TR/2001/REC-SVG-20010904/DTD/svg10.dtd">
<svg version="1.0" xmlns="http://www.w3.org/2000/svg"
 width="390.000000pt" height="390.000000pt" viewBox="0 0 390.000000 390.000000"
 preserveAspectRatio="xMidYMid meet">
<metadata>
Created by potrace 1.15, written by Peter Selinger 2001-2017
</metadata>
<g transform="translate(0.000000,390.000000) scale(0.100000,-0.100000)"
fill="#000000" stroke="none">
<path d="M1033 2967 c8 -22 318 -530 335 -549 14 -16 55 -18 530 -20 l516 -3
-653 -700 c-360 -385 -670 -717 -689 -737 l-36 -38 933 0 c841 0 933 2 927 16
-3 8 -81 139 -173 290 l-166 274 -203 0 -202 0 -91 -97 -91 -98 237 -5 237 -5
48 -80 c26 -44 48 -83 48 -87 0 -5 -232 -8 -515 -8 -283 0 -515 3 -515 8 0 4
311 338 691 742 l691 735 -703 3 -704 3 -47 79 c-27 43 -48 81 -48 84 0 3 338
7 750 8 l751 3 -61 98 -61 97 -871 0 c-723 0 -869 -2 -865 -13z"/>
<path d="M1357 1880 l-327 -350 0 -143 0 -142 43 45 c24 25 205 218 402 430
197 212 386 413 419 448 l60 62 -135 0 -135 0 -327 -350z"/>
</g>
</svg>
